<svg width="1680" height="1680" viewBox="0 0 1680 1680" fill="none" xmlns="http://www.w3.org/2000/svg">
<path d="M1680 840C1680 889.84 1675.66 938.66 1667.34 986.11C1598.19 1380.38 1254.08 1680 840 1680C827.28 1680 814.63 1679.72 802.05 1679.16C355.74 1659.31 0 1291.2 0 840C0 376.08 376.08 0 840 0C1303.92 0 1680 376.08 1680 840Z" fill="#4CAF50"/>
<path d="M1667.34 986.11C1598.19 1380.38 1254.08 1680 840 1680C827.28 1680 814.63 1679.72 802.05 1679.16C614.99 1492.06 460.2 1337.15 458.99 1335.76C434.63 1314.67 421.39 1282.51 425.06 1249.15C433.21 1174.94 456.73 1101.07 510.49 1067.61C609.56 1005.96 707.9 979.69 707.9 979.69C711.37 968.91 715.26 933.23 717.3 896.71C704.75 883.68 692.32 870.08 679.21 857.19C658.03 836.37 652.79 807.98 646.25 772.23C641.57 770.15 638.9 766.13 636.49 762.45C636.47 762.42 636.45 762.38 636.42 762.34C631.67 760.28 628.98 756.22 626.55 752.51C626.53 752.48 626.51 752.44 626.48 752.4C621.73 750.34 619.04 746.28 616.61 742.58C613.65 738.04 612.48 732.61 611.38 727.31C607.39 708.24 603.4 689.18 599.42 670.12C596.42 655.8 593.41 641.13 595.44 626.64C596.42 619.79 598.85 612.61 604.48 608.58C610.1 604.55 619.5 605.52 622.32 611.85C622.32 611.85 613.2 522.12 613.2 529.67C605.58 521.21 599.55 502.79 602.07 488.55C604.59 474.32 609.12 460.47 611.38 446.2C613.84 430.52 613.59 414.35 618.09 399.13C624.43 377.68 639.6 360.1 655.04 343.91C665.98 332.45 677.29 321.31 689.62 311.38C714.33 291.52 743.78 276.58 775.29 273.05C785.4 271.92 795.6 271.97 805.77 272.02C817.17 272.08 828.59 272.13 840 272.19C851.41 272.13 862.83 272.08 874.23 272.02C884.4 271.97 894.6 271.92 904.71 273.05C936.22 276.58 965.67 291.52 990.38 311.38C1001.15 320.05 1011.13 329.64 1020.77 339.57C1022.78 341.51 1378.99 697.72 1667.34 986.11Z" fill="black" fill-opacity="0.2"/>
<path d="M1193.46 1352.68C1131.3 1378.1 1019.94 1408 840 1408C660.06 1408 548.703 1378.1 486.54 1352.68C445.214 1335.77 420.184 1293.53 425.057 1249.15C433.209 1174.94 456.733 1101.07 510.494 1067.61C609.563 1005.96 707.903 979.692 707.903 979.692C711.368 968.909 715.262 933.234 717.301 896.708C704.754 883.675 692.319 870.075 679.205 857.187C654.239 832.651 651.43 797.582 642.518 752.346C626.141 757.001 620.961 749.205 616.613 742.575C613.65 738.042 612.484 732.61 611.375 727.307C607.384 708.243 603.401 689.179 599.418 670.115C596.423 655.795 593.411 641.126 595.443 626.636C596.414 619.787 598.851 612.607 604.477 608.576C610.103 604.553 619.502 605.524 622.319 611.846C622.319 611.846 613.196 522.119 613.196 529.672C605.578 521.213 599.547 502.788 602.073 488.548C604.591 474.317 609.116 460.466 611.374 446.194C613.843 430.522 613.584 414.348 618.085 399.129C624.432 377.677 639.602 360.094 655.039 343.912C665.976 332.449 677.285 321.31 689.622 311.378C714.329 291.52 743.779 276.577 775.285 273.047C785.396 271.922 795.596 271.97 805.763 272.019C817.169 272.076 828.583 272.132 839.997 272.189C851.411 272.132 862.825 272.076 874.231 272.019C884.398 271.97 894.598 271.922 904.709 273.047C936.215 276.577 965.666 291.52 990.372 311.378C1002.71 321.311 1014.02 332.45 1024.95 343.912C1040.39 360.094 1055.56 377.677 1061.91 399.129C1066.41 414.348 1066.15 430.522 1068.62 446.194C1070.88 460.466 1075.4 474.317 1077.92 488.548C1080.45 502.787 1074.42 521.212 1066.8 529.672C1066.8 522.119 1057.68 611.846 1057.68 611.846C1060.49 605.524 1069.89 604.552 1075.52 608.576C1081.14 612.607 1083.58 619.788 1084.55 626.636C1086.58 641.126 1083.57 655.795 1080.58 670.115C1076.59 689.179 1072.61 708.243 1068.62 727.307C1067.51 732.609 1066.34 738.041 1063.38 742.575C1059.03 749.205 1053.85 757.001 1037.48 752.346C1028.56 797.582 1025.75 832.65 1000.79 857.187C987.675 870.074 975.241 883.674 962.693 896.708C964.733 933.234 968.627 968.909 972.091 979.692C972.091 979.692 1070.43 1005.96 1169.5 1067.61C1223.26 1101.07 1246.79 1174.94 1254.94 1249.15C1259.82 1293.53 1234.79 1335.78 1193.46 1352.68Z" fill="white"/>
</svg>
